<svg width="90" height="180" xmlns="http://www.w3.org/2000/svg"><style>@keyframes rec-0{0%,12%,18%,25%,31%,37%,43%,50%,56%,6%,62%,68%,75%,81%,87%,93%{fill:#f4f4f4}}@keyframes rec-1{0%,12%,18%,25%,31%,37%,43%,50%,56%,6%,62%,68%,75%,81%,87%,93%{fill:#f4f4f4}}@keyframes rec-2{0%,12%,18%,25%,31%,37%,43%,50%,56%,6%,62%,68%,75%,81%,87%,93%{fill:#f4f4f4}}@keyframes rec-3{0%,12%,18%,25%,31%,37%,43%,50%,56%,6%,62%,68%,75%,81%,87%,93%{fill:#f4f4f4}}@keyframes rec-4{0%,12%,18%,25%,31%,37%,43%,50%,56%,6%,62%,68%,75%{fill:#f4f4f4}81%,87%,93%{fill:#ea6f3a}}@keyframes rec-5{0%,12%,18%,25%,31%,37%,43%,50%,56%,6%,62%,68%,75%,81%,87%,93%{fill:#f4f4f4}}@keyframes rec-6{0%,12%,18%,25%,31%,37%,43%,50%,56%,6%,62%,68%,75%,81%,87%,93%{fill:#f4f4f4}}@keyframes rec-7{0%,12%,18%,25%,31%,37%,43%,50%,56%,6%,62%,68%,75%,81%,87%,93%{fill:#f4f4f4}}@keyframes rec-8{0%,12%,18%,25%,31%,37%,43%,50%,56%,6%,62%,68%,75%,81%,87%,93%{fill:#f4f4f4}}@keyframes rec-9{0%,12%,18%,25%,31%,37%,43%,50%,56%,6%,62%,68%,75%,81%,87%,93%{fill:#f4f4f4}}@keyframes rec-10{0%,12%,18%,25%,31%,37%,43%,50%,56%,6%,62%,68%,75%,81%,87%,93%{fill:#f4f4f4}}@keyframes rec-11{0%,81%,87%,93%{fill:#ea6f3a}12%,18%,25%,31%,37%,43%,50%,56%,6%,62%,68%,75%{fill:#f4f4f4}}@keyframes rec-12{0%,81%,87%,93%{fill:#ea6f3a}12%,18%,25%,31%,37%,43%,50%,56%,6%,62%,68%,75%{fill:#f4f4f4}}@keyframes rec-13{0%,12%,18%,25%,31%,37%,43%,50%,56%,6%,62%,68%,75%,81%,87%,93%{fill:#f4f4f4}}@keyframes rec-14{0%,12%,18%,25%,31%,37%,43%,50%,56%,6%,62%,68%,75%,81%,87%,93%{fill:#f4f4f4}}@keyframes rec-15{0%,12%,18%,25%,31%,37%,43%,50%,56%,6%,62%,68%,75%,81%,87%,93%{fill:#f4f4f4}}@keyframes rec-16{0%,12%,18%,25%,31%,37%,43%,50%,56%,6%,62%,68%,75%,81%,87%,93%{fill:#f4f4f4}}@keyframes rec-17{0%,12%,18%,25%,31%,37%,43%,50%,56%,6%,62%,68%,75%,81%,87%,93%{fill:#f4f4f4}}@keyframes rec-18{0%,12%,18%,25%,31%,37%,43%,50%,56%,6%,62%,68%,75%,81%,87%,93%{fill:#f4f4f4}}@keyframes rec-19{0%,6%,81%,87%,93%{fill:#ea6f3a}12%,18%,25%,31%,37%,43%,50%,56%,62%,68%,75%{fill:#f4f4f4}}@keyframes rec-20{0%,6%{fill:#ea6f3a}12%,18%,25%,31%,37%,43%,50%,56%,62%,68%,75%,81%,87%,93%{fill:#f4f4f4}}@keyframes rec-21{0%,12%,18%,25%,31%,37%,43%,50%,56%,6%,62%,68%,75%,81%,87%,93%{fill:#f4f4f4}}@keyframes rec-22{0%,12%,18%,25%,31%,37%,43%,50%,56%,6%,62%,68%,75%,81%,87%,93%{fill:#f4f4f4}}@keyframes rec-23{0%,12%,18%,25%,31%,37%,43%,50%,56%,6%,62%,68%,75%,81%,87%,93%{fill:#f4f4f4}}@keyframes rec-24{0%,12%,18%,25%,31%,37%,43%,50%,56%,6%,62%,68%,75%,81%,87%,93%{fill:#f4f4f4}}@keyframes rec-25{0%,12%,18%,25%,31%,37%,43%,50%,56%,6%,62%,68%,75%,81%,87%,93%{fill:#f4f4f4}}@keyframes rec-26{0%,12%,18%,25%,31%,37%,43%,50%,56%,6%,62%,68%,75%,81%,87%,93%{fill:#f4f4f4}}@keyframes rec-27{0%,18%,25%,31%,37%,43%,50%,56%,62%,68%,75%,81%,87%,93%{fill:#f4f4f4}12%,6%{fill:#ea6f3a}}@keyframes rec-28{0%,18%,25%,31%,37%,43%,50%,56%,62%,68%,75%,81%,87%,93%{fill:#f4f4f4}12%,6%{fill:#ea6f3a}}@keyframes rec-29{0%,12%,18%,25%,31%,37%,43%,50%,56%,6%,62%,68%,75%,81%,87%,93%{fill:#f4f4f4}}@keyframes rec-30{0%,12%,18%,25%,31%,37%,43%,50%,56%,6%,62%,68%,75%,81%,87%,93%{fill:#f4f4f4}}@keyframes rec-31{0%,12%,18%,25%,31%,37%,43%,50%,56%,6%,62%,68%,75%,81%,87%,93%{fill:#f4f4f4}}@keyframes rec-32{0%,12%,18%,25%,31%,37%,43%,50%,56%,6%,62%,68%,75%,81%,87%,93%{fill:#f4f4f4}}@keyframes rec-33{0%,12%,18%,25%,31%,37%,43%,50%,56%,6%,62%,68%,75%,81%,87%,93%{fill:#f4f4f4}}@keyframes rec-34{0%,12%,18%,25%,31%,37%,43%,50%,56%,6%,62%,68%,75%,81%,87%,93%{fill:#f4f4f4}}@keyframes rec-35{0%,25%,31%,37%,43%,50%,56%,6%,62%,68%,75%,81%,87%,93%{fill:#f4f4f4}12%,18%{fill:#ea6f3a}}@keyframes rec-36{0%,25%,31%,37%,43%,50%,56%,6%,62%,68%,75%,81%,87%,93%{fill:#f4f4f4}12%,18%{fill:#ea6f3a}}@keyframes rec-37{0%,12%,18%,25%,31%,37%,43%,50%,56%,6%,62%,68%,75%,81%,87%,93%{fill:#f4f4f4}}@keyframes rec-38{0%,12%,18%,25%,31%,37%,43%,50%,56%,6%,62%,68%,75%,81%,87%,93%{fill:#f4f4f4}}@keyframes rec-39{0%,12%,18%,25%,31%,37%,43%,50%,56%,6%,62%,68%,75%,81%,87%,93%{fill:#f4f4f4}}@keyframes rec-40{0%,12%,18%,25%,31%,37%,43%,50%,56%,6%,62%,68%,75%,81%,87%,93%{fill:#f4f4f4}}@keyframes rec-41{0%,12%,18%,25%,31%,37%,43%,50%,56%,6%,62%,68%,75%,81%,87%,93%{fill:#f4f4f4}}@keyframes rec-42{0%,12%,18%,25%,31%,37%,43%,50%,56%,6%,62%,68%,75%,81%,87%,93%{fill:#f4f4f4}}@keyframes rec-43{0%,12%,31%,37%,43%,50%,56%,6%,62%,68%,75%,81%,87%,93%{fill:#f4f4f4}18%,25%{fill:#ea6f3a}}@keyframes rec-44{0%,12%,31%,37%,43%,50%,56%,6%,62%,68%,75%,81%,87%,93%{fill:#f4f4f4}18%,25%{fill:#ea6f3a}}@keyframes rec-45{0%,12%,18%,25%,31%,37%,43%,50%,56%,6%,62%,68%,75%,81%,87%,93%{fill:#f4f4f4}}@keyframes rec-46{0%,12%,18%,25%,31%,37%,43%,50%,56%,6%,62%,68%,75%,81%,87%,93%{fill:#f4f4f4}}@keyframes rec-47{0%,12%,18%,25%,31%,37%,43%,50%,56%,6%,62%,68%,75%,81%,87%,93%{fill:#f4f4f4}}@keyframes rec-48{0%,12%,18%,25%,31%,37%,43%,50%,56%,6%,62%,68%,75%,81%,87%,93%{fill:#f4f4f4}}@keyframes rec-49{0%,12%,18%,25%,31%,37%,43%,50%,56%,6%,62%,68%,75%,81%,87%,93%{fill:#f4f4f4}}@keyframes rec-50{0%,12%,18%,25%,31%,37%,43%,50%,56%,6%,62%,68%,75%,81%,87%,93%{fill:#f4f4f4}}@keyframes rec-51{0%,12%,18%,37%,43%,50%,56%,6%,62%,68%,75%,81%,87%,93%{fill:#f4f4f4}25%,31%{fill:#ea6f3a}}@keyframes rec-52{0%,12%,18%,37%,43%,50%,56%,6%,62%,68%,75%,81%,87%,93%{fill:#f4f4f4}25%,31%{fill:#ea6f3a}}@keyframes rec-53{0%,12%,18%,25%,31%,37%,43%,50%,56%,6%,62%,68%,75%,81%,87%,93%{fill:#f4f4f4}}@keyframes rec-54{0%,12%,18%,25%,31%,37%,43%,50%,56%,6%,62%,68%,75%,81%,87%,93%{fill:#f4f4f4}}@keyframes rec-55{0%,12%,18%,25%,31%,37%,43%,50%,56%,6%,62%,68%,75%,81%,87%,93%{fill:#f4f4f4}}@keyframes rec-56{0%,12%,18%,25%,31%,37%,43%,50%,56%,6%,62%,68%,75%,81%,87%,93%{fill:#f4f4f4}}@keyframes rec-57{0%,12%,18%,25%,31%,37%,43%,50%,56%,6%,62%,68%,75%,81%,87%,93%{fill:#f4f4f4}}@keyframes rec-58{0%,12%,18%,25%,31%,43%,50%,56%,6%,62%,68%,75%,81%,87%,93%{fill:#f4f4f4}37%{fill:#ea6f3a}}@keyframes rec-59{0%,12%,18%,25%,43%,50%,56%,6%,62%,68%,75%,81%,87%,93%{fill:#f4f4f4}31%,37%{fill:#ea6f3a}}@keyframes rec-60{0%,12%,18%,25%,37%,43%,50%,56%,6%,62%,68%,75%,81%,87%,93%{fill:#f4f4f4}31%{fill:#ea6f3a}}@keyframes rec-61{0%,12%,18%,25%,31%,37%,43%,50%,56%,6%,62%,68%,75%,81%,87%,93%{fill:#f4f4f4}}@keyframes rec-62{0%,12%,18%,25%,31%,37%,43%,50%,56%,6%,62%,68%,75%,81%,87%,93%{fill:#f4f4f4}}@keyframes rec-63{0%,12%,18%,25%,31%,37%,43%,50%,56%,6%,62%,68%,75%,81%,87%,93%{fill:#f4f4f4}}@keyframes rec-64{0%,12%,18%,25%,31%,37%,43%,50%,56%,6%,62%,68%,75%,81%,87%,93%{fill:#f4f4f4}}@keyframes rec-65{0%,12%,18%,25%,31%,37%,43%,50%,56%,6%,62%,68%,75%,81%,87%,93%{fill:#f4f4f4}}@keyframes rec-66{0%,12%,18%,25%,31%,50%,56%,6%,62%,68%,75%,81%,87%,93%{fill:#f4f4f4}37%,43%{fill:#ea6f3a}}@keyframes rec-67{0%,12%,18%,25%,31%,50%,56%,6%,62%,68%,75%,81%,87%,93%{fill:#f4f4f4}37%,43%{fill:#ea6f3a}}@keyframes rec-68{0%,12%,18%,25%,31%,37%,43%,50%,56%,6%,62%,68%,75%,81%,87%,93%{fill:#f4f4f4}}@keyframes rec-69{0%,12%,18%,25%,31%,37%,43%,50%,56%,6%,62%,68%,75%,81%,87%,93%{fill:#f4f4f4}}@keyframes rec-70{0%,12%,18%,25%,31%,37%,43%,50%,56%,6%,62%,68%,75%,81%,87%,93%{fill:#f4f4f4}}@keyframes rec-71{0%,12%,18%,25%,31%,37%,43%,50%,56%,6%,62%,68%,75%,81%,87%,93%{fill:#f4f4f4}}@keyframes rec-72{0%,12%,18%,25%,31%,37%,43%,50%,56%,6%,62%,68%,75%,81%,87%,93%{fill:#f4f4f4}}@keyframes rec-73{0%,12%,18%,25%,31%,37%,43%,50%,56%,6%,62%,68%,75%,81%,87%,93%{fill:#f4f4f4}}@keyframes rec-74{0%,12%,18%,25%,31%,37%,56%,6%,62%,68%,75%,81%,87%,93%{fill:#f4f4f4}43%,50%{fill:#ea6f3a}}@keyframes rec-75{0%,12%,18%,25%,31%,37%,56%,6%,62%,68%,75%,81%,87%,93%{fill:#f4f4f4}43%,50%{fill:#ea6f3a}}@keyframes rec-76{0%,12%,18%,25%,31%,37%,43%,50%,56%,6%,62%,68%,75%,81%,87%,93%{fill:#f4f4f4}}@keyframes rec-77{0%,12%,18%,25%,31%,37%,43%,50%,56%,6%,62%,68%,75%,81%,87%,93%{fill:#f4f4f4}}@keyframes rec-78{0%,12%,18%,25%,31%,37%,43%,50%,56%,6%,62%,68%,75%,81%,87%,93%{fill:#f4f4f4}}@keyframes rec-79{0%,12%,18%,25%,31%,37%,43%,50%,56%,6%,62%,68%,75%,81%,87%,93%{fill:#f4f4f4}}@keyframes rec-80{0%,12%,18%,25%,31%,37%,43%,50%,56%,6%,62%,68%,75%,81%,87%,93%{fill:#f4f4f4}}@keyframes rec-81{0%,12%,18%,25%,31%,37%,43%,50%,56%,6%,62%,68%,75%,81%,87%,93%{fill:#f4f4f4}}@keyframes rec-82{0%,12%,18%,25%,31%,37%,43%,6%,62%,68%,75%,81%,87%,93%{fill:#f4f4f4}50%,56%{fill:#ea6f3a}}@keyframes rec-83{0%,12%,18%,25%,31%,37%,43%,6%,62%,68%,75%,81%,87%,93%{fill:#f4f4f4}50%,56%{fill:#ea6f3a}}@keyframes rec-84{0%,12%,18%,25%,31%,37%,43%,50%,56%,6%,62%,68%,75%,81%,87%,93%{fill:#f4f4f4}}@keyframes rec-85{0%,12%,18%,25%,31%,37%,43%,50%,56%,6%,62%,68%,75%,81%,87%{fill:#929191}93%{fill:#f4f4f4}}@keyframes rec-86{0%,12%,18%,25%,31%,37%,43%,50%,56%,6%,62%,68%,75%,81%,87%,93%{fill:#f4f4f4}}@keyframes rec-87{0%,12%,18%,25%,31%,37%,43%,50%,56%,6%,62%,68%,75%,81%,87%,93%{fill:#f4f4f4}}@keyframes rec-88{0%,12%,18%,25%,31%,37%,43%,50%,56%,6%,62%,68%,75%,81%,87%{fill:#929191}93%{fill:#f4f4f4}}@keyframes rec-89{0%,12%,18%,25%,31%,37%,43%,50%,56%,6%,62%,68%,75%,81%,87%{fill:#929191}93%{fill:#f4f4f4}}@keyframes rec-90{0%,12%,18%,25%,31%,37%,43%,50%,6%,68%,75%,81%,87%,93%{fill:#f4f4f4}56%,62%{fill:#ea6f3a}}@keyframes rec-91{0%,12%,18%,25%,31%,37%,43%,50%,6%,68%,75%,81%,87%,93%{fill:#f4f4f4}56%,62%{fill:#ea6f3a}}@keyframes rec-92{0%,12%,18%,25%,31%,37%,43%,50%,56%,6%,62%,68%,75%,81%,87%{fill:#929191}93%{fill:#f4f4f4}}@keyframes rec-93{0%,12%,18%,25%,31%,37%,43%,50%,56%,6%,62%,68%,75%,81%,87%,93%{fill:#929191}}@keyframes rec-94{0%,12%,18%,25%,31%,37%,43%,50%,56%,6%,62%,68%,75%,81%,87%,93%{fill:#f4f4f4}}@keyframes rec-95{0%,12%,18%,25%,31%,37%,43%,50%,56%,6%,62%,68%,75%,81%,87%,93%{fill:#f4f4f4}}@keyframes rec-96{0%,12%,18%,25%,31%,37%,43%,50%,56%,6%,62%,68%,75%,81%,87%,93%{fill:#929191}}@keyframes rec-97{0%,12%,18%,25%,31%,37%,43%,50%,56%,6%,62%,68%,75%,81%,87%,93%{fill:#929191}}@keyframes rec-98{0%,12%,18%,25%,31%,37%,43%,50%,56%,6%,75%,81%,87%,93%{fill:#f4f4f4}62%,68%{fill:#ea6f3a}}@keyframes rec-99{0%,12%,18%,25%,31%,37%,43%,50%,56%,6%,75%,81%,87%,93%{fill:#f4f4f4}62%,68%{fill:#ea6f3a}}@keyframes rec-100{0%,12%,18%,25%,31%,37%,43%,50%,56%,6%,62%,68%,75%,81%,87%,93%{fill:#929191}}@keyframes rec-101{0%,12%,18%,25%,31%,37%,43%,50%,56%,6%,62%,68%,75%,81%,87%{fill:#f4f4f4}93%{fill:#929191}}@keyframes rec-102{0%,12%,18%,25%,31%,37%,43%,50%,56%,6%,62%,68%,75%,81%,87%,93%{fill:#f4f4f4}}@keyframes rec-103{0%,12%,18%,25%,31%,37%,43%,50%,56%,6%,62%,68%,75%,81%,87%,93%{fill:#f4f4f4}}@keyframes rec-104{0%,12%,18%,25%,31%,37%,43%,50%,56%,6%,62%,68%,75%,81%,87%,93%{fill:#929191}}@keyframes rec-105{0%,12%,18%,25%,31%,37%,43%,50%,56%,6%,62%,68%,75%,81%,87%{fill:#f4f4f4}93%{fill:#929191}}@keyframes rec-106{0%,12%,18%,25%,31%,37%,43%,50%,56%,6%,62%,93%{fill:#f4f4f4}68%,75%{fill:#ea6f3a}81%,87%{fill:#929191}}@keyframes rec-107{0%,12%,18%,25%,31%,37%,43%,50%,56%,6%,62%,93%{fill:#f4f4f4}68%,75%{fill:#ea6f3a}81%,87%{fill:#929191}}@keyframes rec-108{0%,12%,18%,25%,31%,37%,43%,50%,56%,6%,62%,68%,75%,81%,87%,93%{fill:#929191}}@keyframes rec-109{0%,12%,18%,25%,31%,37%,43%,50%,56%,6%,62%,68%,75%,81%,87%{fill:#929191}93%{fill:#f4f4f4}}@keyframes rec-110{0%,12%,18%,25%,31%,37%,43%,50%,56%,6%,62%,68%,75%,81%,87%,93%{fill:#f4f4f4}}@keyframes rec-111{0%,12%,18%,25%,31%,37%,43%,50%,56%,6%,62%,68%,75%,81%,87%,93%{fill:#f4f4f4}}@keyframes rec-112{0%,12%,18%,25%,31%,37%,43%,50%,56%,6%,62%,68%,75%,81%,93%{fill:#929191}87%{fill:#f4f4f4}}@keyframes rec-113{0%,12%,18%,25%,31%,37%,43%,50%,56%,6%,62%,68%,75%,81%{fill:#929191}87%,93%{fill:#f4f4f4}}@keyframes rec-114{0%,12%,18%,25%,31%,37%,43%,50%,56%,6%,62%,68%,87%{fill:#f4f4f4}75%{fill:#ea6f3a}81%,93%{fill:#929191}}@keyframes rec-115{0%,12%,18%,25%,31%,37%,43%,50%,56%,6%,62%,68%,87%{fill:#f4f4f4}75%{fill:#ea6f3a}81%,93%{fill:#929191}}@keyframes rec-116{0%,12%,18%,25%,31%,37%,43%,50%,56%,6%,62%,68%,75%,81%,93%{fill:#929191}87%{fill:#f4f4f4}}@keyframes rec-117{0%,12%,18%,25%,31%,37%,43%,50%,56%,6%,62%,68%,75%,81%,93%{fill:#929191}87%{fill:#f4f4f4}}@keyframes rec-118{0%,12%,18%,25%,31%,37%,43%,50%,56%,6%,62%,68%,75%,81%{fill:#929191}87%,93%{fill:#f4f4f4}}@keyframes rec-119{0%,12%,18%,25%,31%,37%,43%,50%,56%,6%,62%,68%,75%,81%{fill:#929191}87%,93%{fill:#f4f4f4}}@keyframes rec-120{0%,12%,18%,25%,31%,37%,43%,50%,56%,6%,62%,68%,75%,81%,87%,93%{fill:#f4f4f4}}@keyframes rec-121{0%,12%,18%,25%,31%,37%,43%,50%,56%,6%,62%,68%,75%,81%,87%,93%{fill:#929191}}@keyframes rec-122{0%,12%,18%,25%,31%,37%,43%,50%,56%,6%,62%,68%,75%,81%,87%,93%{fill:#929191}}@keyframes rec-123{0%,12%,18%,25%,31%,37%,43%,50%,56%,6%,62%,68%,75%,81%,87%,93%{fill:#929191}}@keyframes rec-124{0%,12%,18%,25%,31%,37%,43%,50%,56%,6%,62%,68%,75%,81%,87%,93%{fill:#f4f4f4}}@keyframes rec-125{0%,12%,18%,25%,31%,37%,43%,50%,56%,6%,62%,68%,75%,81%,87%,93%{fill:#929191}}@keyframes rec-126{0%,12%,18%,25%,31%,37%,43%,50%,56%,6%,62%,68%,75%,81%,87%,93%{fill:#f4f4f4}}@keyframes rec-127{0%,12%,18%,25%,31%,37%,43%,50%,56%,6%,62%,68%,75%,81%,87%,93%{fill:#929191}}</style><path style="animation:none 16000ms step-start infinite;animation-name:rec-0" d="M0 0h8v8H0z"/><path style="animation:none 16000ms step-start infinite;animation-name:rec-1" d="M10 0h8v8h-8z"/><path style="animation:none 16000ms step-start infinite;animation-name:rec-2" d="M20 0h8v8h-8z"/><path style="animation:none 16000ms step-start infinite;animation-name:rec-3" d="M30 0h8v8h-8z"/><path style="animation:none 16000ms step-start infinite;animation-name:rec-4" d="M40 0h8v8h-8z"/><path style="animation:none 16000ms step-start infinite;animation-name:rec-5" d="M50 0h8v8h-8z"/><path style="animation:none 16000ms step-start infinite;animation-name:rec-6" d="M60 0h8v8h-8z"/><path style="animation:none 16000ms step-start infinite;animation-name:rec-7" d="M70 0h8v8h-8z"/><path style="animation:none 16000ms step-start infinite;animation-name:rec-8" d="M0 10h8v8H0z"/><path style="animation:none 16000ms step-start infinite;animation-name:rec-9" d="M10 10h8v8h-8z"/><path style="animation:none 16000ms step-start infinite;animation-name:rec-10" d="M20 10h8v8h-8z"/><path style="animation:none 16000ms step-start infinite;animation-name:rec-11" d="M30 10h8v8h-8z"/><path style="animation:none 16000ms step-start infinite;animation-name:rec-12" d="M40 10h8v8h-8z"/><path style="animation:none 16000ms step-start infinite;animation-name:rec-13" d="M50 10h8v8h-8z"/><path style="animation:none 16000ms step-start infinite;animation-name:rec-14" d="M60 10h8v8h-8z"/><path style="animation:none 16000ms step-start infinite;animation-name:rec-15" d="M70 10h8v8h-8z"/><path style="animation:none 16000ms step-start infinite;animation-name:rec-16" d="M0 20h8v8H0z"/><path style="animation:none 16000ms step-start infinite;animation-name:rec-17" d="M10 20h8v8h-8z"/><path style="animation:none 16000ms step-start infinite;animation-name:rec-18" d="M20 20h8v8h-8z"/><path style="animation:none 16000ms step-start infinite;animation-name:rec-19" d="M30 20h8v8h-8z"/><path style="animation:none 16000ms step-start infinite;animation-name:rec-20" d="M40 20h8v8h-8z"/><path style="animation:none 16000ms step-start infinite;animation-name:rec-21" d="M50 20h8v8h-8z"/><path style="animation:none 16000ms step-start infinite;animation-name:rec-22" d="M60 20h8v8h-8z"/><path style="animation:none 16000ms step-start infinite;animation-name:rec-23" d="M70 20h8v8h-8z"/><path style="animation:none 16000ms step-start infinite;animation-name:rec-24" d="M0 30h8v8H0z"/><path style="animation:none 16000ms step-start infinite;animation-name:rec-25" d="M10 30h8v8h-8z"/><path style="animation:none 16000ms step-start infinite;animation-name:rec-26" d="M20 30h8v8h-8z"/><path style="animation:none 16000ms step-start infinite;animation-name:rec-27" d="M30 30h8v8h-8z"/><path style="animation:none 16000ms step-start infinite;animation-name:rec-28" d="M40 30h8v8h-8z"/><path style="animation:none 16000ms step-start infinite;animation-name:rec-29" d="M50 30h8v8h-8z"/><path style="animation:none 16000ms step-start infinite;animation-name:rec-30" d="M60 30h8v8h-8z"/><path style="animation:none 16000ms step-start infinite;animation-name:rec-31" d="M70 30h8v8h-8z"/><path style="animation:none 16000ms step-start infinite;animation-name:rec-32" d="M0 40h8v8H0z"/><path style="animation:none 16000ms step-start infinite;animation-name:rec-33" d="M10 40h8v8h-8z"/><path style="animation:none 16000ms step-start infinite;animation-name:rec-34" d="M20 40h8v8h-8z"/><path style="animation:none 16000ms step-start infinite;animation-name:rec-35" d="M30 40h8v8h-8z"/><path style="animation:none 16000ms step-start infinite;animation-name:rec-36" d="M40 40h8v8h-8z"/><path style="animation:none 16000ms step-start infinite;animation-name:rec-37" d="M50 40h8v8h-8z"/><path style="animation:none 16000ms step-start infinite;animation-name:rec-38" d="M60 40h8v8h-8z"/><path style="animation:none 16000ms step-start infinite;animation-name:rec-39" d="M70 40h8v8h-8z"/><path style="animation:none 16000ms step-start infinite;animation-name:rec-40" d="M0 50h8v8H0z"/><path style="animation:none 16000ms step-start infinite;animation-name:rec-41" d="M10 50h8v8h-8z"/><path style="animation:none 16000ms step-start infinite;animation-name:rec-42" d="M20 50h8v8h-8z"/><path style="animation:none 16000ms step-start infinite;animation-name:rec-43" d="M30 50h8v8h-8z"/><path style="animation:none 16000ms step-start infinite;animation-name:rec-44" d="M40 50h8v8h-8z"/><path style="animation:none 16000ms step-start infinite;animation-name:rec-45" d="M50 50h8v8h-8z"/><path style="animation:none 16000ms step-start infinite;animation-name:rec-46" d="M60 50h8v8h-8z"/><path style="animation:none 16000ms step-start infinite;animation-name:rec-47" d="M70 50h8v8h-8z"/><path style="animation:none 16000ms step-start infinite;animation-name:rec-48" d="M0 60h8v8H0z"/><path style="animation:none 16000ms step-start infinite;animation-name:rec-49" d="M10 60h8v8h-8z"/><path style="animation:none 16000ms step-start infinite;animation-name:rec-50" d="M20 60h8v8h-8z"/><path style="animation:none 16000ms step-start infinite;animation-name:rec-51" d="M30 60h8v8h-8z"/><path style="animation:none 16000ms step-start infinite;animation-name:rec-52" d="M40 60h8v8h-8z"/><path style="animation:none 16000ms step-start infinite;animation-name:rec-53" d="M50 60h8v8h-8z"/><path style="animation:none 16000ms step-start infinite;animation-name:rec-54" d="M60 60h8v8h-8z"/><path style="animation:none 16000ms step-start infinite;animation-name:rec-55" d="M70 60h8v8h-8z"/><path style="animation:none 16000ms step-start infinite;animation-name:rec-56" d="M0 70h8v8H0z"/><path style="animation:none 16000ms step-start infinite;animation-name:rec-57" d="M10 70h8v8h-8z"/><path style="animation:none 16000ms step-start infinite;animation-name:rec-58" d="M20 70h8v8h-8z"/><path style="animation:none 16000ms step-start infinite;animation-name:rec-59" d="M30 70h8v8h-8z"/><path style="animation:none 16000ms step-start infinite;animation-name:rec-60" d="M40 70h8v8h-8z"/><path style="animation:none 16000ms step-start infinite;animation-name:rec-61" d="M50 70h8v8h-8z"/><path style="animation:none 16000ms step-start infinite;animation-name:rec-62" d="M60 70h8v8h-8z"/><path style="animation:none 16000ms step-start infinite;animation-name:rec-63" d="M70 70h8v8h-8z"/><path style="animation:none 16000ms step-start infinite;animation-name:rec-64" d="M0 80h8v8H0z"/><path style="animation:none 16000ms step-start infinite;animation-name:rec-65" d="M10 80h8v8h-8z"/><path style="animation:none 16000ms step-start infinite;animation-name:rec-66" d="M20 80h8v8h-8z"/><path style="animation:none 16000ms step-start infinite;animation-name:rec-67" d="M30 80h8v8h-8z"/><path style="animation:none 16000ms step-start infinite;animation-name:rec-68" d="M40 80h8v8h-8z"/><path style="animation:none 16000ms step-start infinite;animation-name:rec-69" d="M50 80h8v8h-8z"/><path style="animation:none 16000ms step-start infinite;animation-name:rec-70" d="M60 80h8v8h-8z"/><path style="animation:none 16000ms step-start infinite;animation-name:rec-71" d="M70 80h8v8h-8z"/><path style="animation:none 16000ms step-start infinite;animation-name:rec-72" d="M0 90h8v8H0z"/><path style="animation:none 16000ms step-start infinite;animation-name:rec-73" d="M10 90h8v8h-8z"/><path style="animation:none 16000ms step-start infinite;animation-name:rec-74" d="M20 90h8v8h-8z"/><path style="animation:none 16000ms step-start infinite;animation-name:rec-75" d="M30 90h8v8h-8z"/><path style="animation:none 16000ms step-start infinite;animation-name:rec-76" d="M40 90h8v8h-8z"/><path style="animation:none 16000ms step-start infinite;animation-name:rec-77" d="M50 90h8v8h-8z"/><path style="animation:none 16000ms step-start infinite;animation-name:rec-78" d="M60 90h8v8h-8z"/><path style="animation:none 16000ms step-start infinite;animation-name:rec-79" d="M70 90h8v8h-8z"/><path style="animation:none 16000ms step-start infinite;animation-name:rec-80" d="M0 100h8v8H0z"/><path style="animation:none 16000ms step-start infinite;animation-name:rec-81" d="M10 100h8v8h-8z"/><path style="animation:none 16000ms step-start infinite;animation-name:rec-82" d="M20 100h8v8h-8z"/><path style="animation:none 16000ms step-start infinite;animation-name:rec-83" d="M30 100h8v8h-8z"/><path style="animation:none 16000ms step-start infinite;animation-name:rec-84" d="M40 100h8v8h-8z"/><path style="animation:none 16000ms step-start infinite;animation-name:rec-85" d="M50 100h8v8h-8z"/><path style="animation:none 16000ms step-start infinite;animation-name:rec-86" d="M60 100h8v8h-8z"/><path style="animation:none 16000ms step-start infinite;animation-name:rec-87" d="M70 100h8v8h-8z"/><path style="animation:none 16000ms step-start infinite;animation-name:rec-88" d="M0 110h8v8H0z"/><path style="animation:none 16000ms step-start infinite;animation-name:rec-89" d="M10 110h8v8h-8z"/><path style="animation:none 16000ms step-start infinite;animation-name:rec-90" d="M20 110h8v8h-8z"/><path style="animation:none 16000ms step-start infinite;animation-name:rec-91" d="M30 110h8v8h-8z"/><path style="animation:none 16000ms step-start infinite;animation-name:rec-92" d="M40 110h8v8h-8z"/><path style="animation:none 16000ms step-start infinite;animation-name:rec-93" d="M50 110h8v8h-8z"/><path style="animation:none 16000ms step-start infinite;animation-name:rec-94" d="M60 110h8v8h-8z"/><path style="animation:none 16000ms step-start infinite;animation-name:rec-95" d="M70 110h8v8h-8z"/><path style="animation:none 16000ms step-start infinite;animation-name:rec-96" d="M0 120h8v8H0z"/><path style="animation:none 16000ms step-start infinite;animation-name:rec-97" d="M10 120h8v8h-8z"/><path style="animation:none 16000ms step-start infinite;animation-name:rec-98" d="M20 120h8v8h-8z"/><path style="animation:none 16000ms step-start infinite;animation-name:rec-99" d="M30 120h8v8h-8z"/><path style="animation:none 16000ms step-start infinite;animation-name:rec-100" d="M40 120h8v8h-8z"/><path style="animation:none 16000ms step-start infinite;animation-name:rec-101" d="M50 120h8v8h-8z"/><path style="animation:none 16000ms step-start infinite;animation-name:rec-102" d="M60 120h8v8h-8z"/><path style="animation:none 16000ms step-start infinite;animation-name:rec-103" d="M70 120h8v8h-8z"/><path style="animation:none 16000ms step-start infinite;animation-name:rec-104" d="M0 130h8v8H0z"/><path style="animation:none 16000ms step-start infinite;animation-name:rec-105" d="M10 130h8v8h-8z"/><path style="animation:none 16000ms step-start infinite;animation-name:rec-106" d="M20 130h8v8h-8z"/><path style="animation:none 16000ms step-start infinite;animation-name:rec-107" d="M30 130h8v8h-8z"/><path style="animation:none 16000ms step-start infinite;animation-name:rec-108" d="M40 130h8v8h-8z"/><path style="animation:none 16000ms step-start infinite;animation-name:rec-109" d="M50 130h8v8h-8z"/><path style="animation:none 16000ms step-start infinite;animation-name:rec-110" d="M60 130h8v8h-8z"/><path style="animation:none 16000ms step-start infinite;animation-name:rec-111" d="M70 130h8v8h-8z"/><path style="animation:none 16000ms step-start infinite;animation-name:rec-112" d="M0 140h8v8H0z"/><path style="animation:none 16000ms step-start infinite;animation-name:rec-113" d="M10 140h8v8h-8z"/><path style="animation:none 16000ms step-start infinite;animation-name:rec-114" d="M20 140h8v8h-8z"/><path style="animation:none 16000ms step-start infinite;animation-name:rec-115" d="M30 140h8v8h-8z"/><path style="animation:none 16000ms step-start infinite;animation-name:rec-116" d="M40 140h8v8h-8z"/><path style="animation:none 16000ms step-start infinite;animation-name:rec-117" d="M50 140h8v8h-8z"/><path style="animation:none 16000ms step-start infinite;animation-name:rec-118" d="M60 140h8v8h-8z"/><path style="animation:none 16000ms step-start infinite;animation-name:rec-119" d="M70 140h8v8h-8z"/><path style="animation:none 16000ms step-start infinite;animation-name:rec-120" d="M0 150h8v8H0z"/><path style="animation:none 16000ms step-start infinite;animation-name:rec-121" d="M10 150h8v8h-8z"/><path style="animation:none 16000ms step-start infinite;animation-name:rec-122" d="M20 150h8v8h-8z"/><path style="animation:none 16000ms step-start infinite;animation-name:rec-123" d="M30 150h8v8h-8z"/><path style="animation:none 16000ms step-start infinite;animation-name:rec-124" d="M40 150h8v8h-8z"/><path style="animation:none 16000ms step-start infinite;animation-name:rec-125" d="M50 150h8v8h-8z"/><path style="animation:none 16000ms step-start infinite;animation-name:rec-126" d="M60 150h8v8h-8z"/><path style="animation:none 16000ms step-start infinite;animation-name:rec-127" d="M70 150h8v8h-8z"/></svg>